<svg xmlns="http://www.w3.org/2000/svg" viewBox="0 0 24 24" fill="none">
  <path d="M12 21C17 21 21 17 21 12C21 7 17 3 12 3C7 3 3 7 3 12C3 17 7 21 12 21Z" stroke="#564334" stroke-opacity=".42" stroke-width="1.8"/>
  <path d="M12 12C13.7 12 15 10.7 15 9C15 7.3 13.7 6 12 6C10.3 6 9 7.3 9 9C9 10.7 10.3 12 12 12Z" stroke="#564334" stroke-opacity=".42" stroke-width="1.8"/>
  <path d="M6.7 18.6C7.5 16.5 9.5 15.1 12 15.1C14.5 15.1 16.5 16.5 17.3 18.6" stroke="#564334" stroke-opacity=".42" stroke-width="1.8" stroke-linecap="round"/>
</svg>
