<svg xmlns="http://www.w3.org/2000/svg" viewBox="0 0 24 24" fill="#5D5E60">
  <path d="M13.1 3.4C13.55 3.4 13.95 3.58 14.26 3.89C14.57 4.2 14.72 4.6 14.7 5.05L14.45 10.1L20.2 13.55C20.45 13.7 20.6 13.95 20.6 14.25V15.5C20.6 15.9 20.2 16.18 19.82 16.05L14.05 14.05L13.55 18.2L15.55 19.75C15.75 19.9 15.85 20.12 15.85 20.36V21.15C15.85 21.48 15.53 21.72 15.22 21.62L12 20.6L8.78 21.62C8.47 21.72 8.15 21.48 8.15 21.15V20.36C8.15 20.12 8.25 19.9 8.45 19.75L10.45 18.2L9.95 14.05L4.18 16.05C3.8 16.18 3.4 15.9 3.4 15.5V14.25C3.4 13.95 3.55 13.7 3.8 13.55L9.55 10.1L9.3 5.05C9.28 4.6 9.43 4.2 9.74 3.89C10.05 3.58 10.45 3.4 10.9 3.4H13.1Z"/>
</svg>
