<svg width="96" height="96" viewBox="0 0 96 96" fill="none" xmlns="http://www.w3.org/2000/svg">
  <defs>
    <clipPath id="clip">
      <circle cx="48" cy="48" r="48"/>
    </clipPath>
    <linearGradient id="bg" x1="20" y1="4" x2="76" y2="95" gradientUnits="userSpaceOnUse">
      <stop stop-color="#EEF2F1"/>
      <stop offset="0.48" stop-color="#C9D2CF"/>
      <stop offset="1" stop-color="#657A7D"/>
    </linearGradient>
    <linearGradient id="skin" x1="49" y1="20" x2="49" y2="70" gradientUnits="userSpaceOnUse">
      <stop stop-color="#F3C5A5"/>
      <stop offset="1" stop-color="#B8744F"/>
    </linearGradient>
    <linearGradient id="shirt" x1="17" y1="66" x2="79" y2="96" gradientUnits="userSpaceOnUse">
      <stop stop-color="#1E272A"/>
      <stop offset="1" stop-color="#3F5155"/>
    </linearGradient>
  </defs>
  <g clip-path="url(#clip)">
    <rect width="96" height="96" fill="url(#bg)"/>
    <path d="M18 92C20.6 73.8 31.6 62.8 48 62.8C64.4 62.8 75.4 73.8 78 92V98H18V92Z" fill="url(#shirt)"/>
    <path d="M29.5 37.5C29.5 25.4 37.2 17.5 48.2 17.5C59.6 17.5 67 25.1 67 37.8C67 52.3 59.1 64.2 48.1 64.2C37.1 64.2 29.5 52.2 29.5 37.5Z" fill="url(#skin)"/>
    <path d="M27.6 38.6C29.3 23.1 38.4 14.7 51.1 16.3C63.1 17.8 69.1 28.2 66.5 42.4C61.6 36.5 54.1 32.6 45.1 32.6C38.3 32.6 32.8 34.6 27.6 38.6Z" fill="#2D211C"/>
    <path d="M35.4 34.7C39.6 30.8 47.9 28.5 56.2 32.2C52 34.3 45.1 35.7 35.4 34.7Z" fill="#4B3428" opacity="0.72"/>
    <path d="M34.5 45C37.6 42.8 41.1 42.8 44.1 44.8" stroke="#3B2B22" stroke-width="2.2" stroke-linecap="round"/>
    <path d="M52.2 44.8C55.5 42.8 58.7 43 61.5 45" stroke="#3B2B22" stroke-width="2.2" stroke-linecap="round"/>
    <circle cx="39.8" cy="48.2" r="2.1" fill="#231B18"/>
    <circle cx="56.6" cy="48.2" r="2.1" fill="#231B18"/>
    <path d="M47.5 48.5L45.7 55.3H50.2" stroke="#8D5435" stroke-width="1.9" stroke-linecap="round" stroke-linejoin="round"/>
    <path d="M41.4 59.7C45.1 62.2 51.2 62.2 54.7 59.7" stroke="#6E3900" stroke-width="2.2" stroke-linecap="round"/>
    <path d="M24 23C27 14.5 35.4 7 47.4 7C62.4 7 72.8 18.2 72.8 34.1C72.8 41.1 70.8 46.6 68.2 50.4C67.5 43.6 66.4 37.8 64.5 33.2C58.1 22.6 41.8 23 24 23Z" fill="#2A211D"/>
    <rect x="0" y="0" width="96" height="96" fill="black" opacity="0.03"/>
  </g>
  <circle cx="48" cy="48" r="46.5" stroke="white" stroke-width="3"/>
</svg>
