<svg width="24" height="24" viewBox="0 0 24 24" fill="none" xmlns="http://www.w3.org/2000/svg">
  <path d="M13.3 4.2c2.1-1.2 4.52-1.55 6.72-1.05.5 2.2.15 4.62-1.05 6.72-.83 1.45-2 2.66-3.38 3.56l.2 3.62-3.35 1.35-1.85-3.16-1.82-1.82-3.16-1.85 1.35-3.35 3.62.2c.9-1.38 2.11-2.55 3.56-3.38Z" fill="#904D00"/>
  <path d="M15.95 8.05a1.55 1.55 0 1 0 0-3.1 1.55 1.55 0 0 0 0 3.1Z" fill="#FCF8FB"/>
  <path d="M5.9 15.65c-1.45.55-2.45 1.75-2.9 3.48-.12.45.3.86.75.75 1.73-.45 2.93-1.45 3.48-2.9l-1.33-1.33Z" fill="#FF8C00"/>
</svg>
