<svg xmlns="http://www.w3.org/2000/svg" viewBox="0 0 24 24" fill="none">
  <path d="M12 15.5C13.9 15.5 15.5 13.9 15.5 12C15.5 10.1 13.9 8.5 12 8.5C10.1 8.5 8.5 10.1 8.5 12C8.5 13.9 10.1 15.5 12 15.5Z" stroke="#904D00" stroke-width="1.8"/>
  <path d="M19.4 13.5C19.5 13 19.5 12.5 19.5 12C19.5 11.5 19.5 11 19.4 10.5L21.2 9.1L19.2 5.7L17.1 6.6C16.3 6 15.5 5.5 14.6 5.2L14.3 3H9.7L9.4 5.2C8.5 5.5 7.7 6 6.9 6.6L4.8 5.7L2.8 9.1L4.6 10.5C4.5 11 4.5 11.5 4.5 12C4.5 12.5 4.5 13 4.6 13.5L2.8 14.9L4.8 18.3L6.9 17.4C7.7 18 8.5 18.5 9.4 18.8L9.7 21H14.3L14.6 18.8C15.5 18.5 16.3 18 17.1 17.4L19.2 18.3L21.2 14.9L19.4 13.5Z" stroke="#904D00" stroke-width="1.8" stroke-linejoin="round"/>
</svg>
