<svg xmlns="http://www.w3.org/2000/svg" viewBox="0 0 24 24" fill="none">
  <path d="M3 8.5C4.4 7.5 5.6 7.5 7 8.5C8.4 9.5 9.6 9.5 11 8.5C12.4 7.5 13.6 7.5 15 8.5C16.4 9.5 17.6 9.5 19 8.5C19.7 8 20.3 7.8 21 7.8" stroke="#564334" stroke-width="1.8" stroke-linecap="round"/>
  <path d="M3 13C4.4 12 5.6 12 7 13C8.4 14 9.6 14 11 13C12.4 12 13.6 12 15 13C16.4 14 17.6 14 19 13C19.7 12.5 20.3 12.3 21 12.3" stroke="#564334" stroke-width="1.8" stroke-linecap="round"/>
  <path d="M3 17.5C4.4 16.5 5.6 16.5 7 17.5C8.4 18.5 9.6 18.5 11 17.5C12.4 16.5 13.6 16.5 15 17.5C16.4 18.5 17.6 18.5 19 17.5C19.7 17 20.3 16.8 21 16.8" stroke="#564334" stroke-width="1.8" stroke-linecap="round"/>
</svg>
