<svg width="24" height="24" viewBox="0 0 24 24" fill="none" xmlns="http://www.w3.org/2000/svg">
  <path d="M9.9 5.05c-4.05 0-7.25 2.55-7.25 5.75 0 1.85 1.08 3.5 2.75 4.55l-.55 2.1 2.45-1.22c.8.22 1.68.34 2.6.34 4.05 0 7.25-2.55 7.25-5.77s-3.2-5.75-7.25-5.75Z" fill="#07C160"/>
  <path d="M14.25 10.2c3.47.18 6.1 2.4 6.1 5.15 0 1.55-.86 2.95-2.22 3.86l.46 1.78-2.05-1.02c-.68.18-1.4.28-2.16.28-2.92 0-5.38-1.62-6.05-3.82.5.08 1.02.12 1.57.12 4.35 0 7.8-2.72 7.8-6.08 0-.18-.02-.36-.04-.54-.96.3-2.08.3-3.41.27Z" fill="#07C160" opacity=".75"/>
  <path d="M7.25 9.7h.03M12.4 9.7h.03" stroke="#FCF8FB" stroke-width="1.8" stroke-linecap="round"/>
</svg>
